<svg width="20" height="22" viewBox="0 0 20 22" fill="none" xmlns="http://www.w3.org/2000/svg">
<path d="M2.5 21.9375C1.8125 21.9375 1.22417 21.6929 0.735 21.2037C0.245 20.7137 0 20.125 0 19.4375V8.1875C0 7.79167 0.0887498 7.41667 0.26625 7.0625C0.442916 6.70833 0.6875 6.41667 1 6.1875L8.5 0.5625C8.72917 0.395833 8.96875 0.270833 9.21875 0.1875C9.46875 0.104167 9.72917 0.0625 10 0.0625C10.2708 0.0625 10.5312 0.104167 10.7812 0.1875C11.0312 0.270833 11.2708 0.395833 11.5 0.5625L19 6.1875C19.3125 6.41667 19.5575 6.70833 19.735 7.0625C19.9117 7.41667 20 7.79167 20 8.1875V19.4375C20 20.125 19.7554 20.7137 19.2663 21.2037C18.7763 21.6929 18.1875 21.9375 17.5 21.9375H12.5V13.1875H7.5V21.9375H2.5Z" fill="white"/>
</svg>
