<svg width="20" height="20" viewBox="0 0 20 20" fill="none" xmlns="http://www.w3.org/2000/svg">
<path d="M10 20C7.44444 20 5.21778 19.1526 3.32 17.4578C1.42148 15.7637 0.333333 13.6481 0.0555555 11.1111H2.33333C2.59259 13.037 3.44889 14.6296 4.90222 15.8889C6.3563 17.1481 8.05556 17.7778 10 17.7778C12.1667 17.7778 14.0044 17.023 15.5133 15.5133C17.023 14.0044 17.7778 12.1667 17.7778 10C17.7778 7.83333 17.023 5.99519 15.5133 4.48556C14.0044 2.97667 12.1667 2.22222 10 2.22222C8.72222 2.22222 7.52778 2.51852 6.41667 3.11111C5.30556 3.7037 4.37037 4.51852 3.61111 5.55556H6.66667V7.77778H0V1.11111H2.22222V3.72222C3.16667 2.53704 4.31963 1.62037 5.68111 0.972222C7.04185 0.324074 8.48148 0 10 0C11.3889 0 12.69 0.263704 13.9033 0.791111C15.1159 1.31926 16.1715 2.03222 17.07 2.93C17.9678 3.82852 18.6807 4.88407 19.2089 6.09667C19.7363 7.31 20 8.61111 20 10C20 11.3889 19.7363 12.6896 19.2089 13.9022C18.6807 15.1156 17.9678 16.1711 17.07 17.0689C16.1715 17.9674 15.1159 18.6807 13.9033 19.2089C12.69 19.7363 11.3889 20 10 20ZM13.1111 14.6667L8.88889 10.4444V4.44444H11.1111V9.55556L14.6667 13.1111L13.1111 14.6667Z" fill="white"/>
</svg>
