<svg width="20" height="24" viewBox="0 0 20 24" fill="none" xmlns="http://www.w3.org/2000/svg">
<path d="M5.22007 10.4373H12.7427C12.9178 10.4373 13.0912 10.4718 13.253 10.5388C13.4147 10.6058 13.5617 10.704 13.6855 10.8279C13.8094 10.9517 13.9076 11.0987 13.9746 11.2604C14.0416 11.4222 14.0761 11.5956 14.0761 11.7707C14.0761 11.9458 14.0416 12.1191 13.9746 12.2809C13.9076 12.4427 13.8094 12.5897 13.6855 12.7135C13.5617 12.8373 13.4147 12.9355 13.253 13.0025C13.0912 13.0695 12.9178 13.104 12.7427 13.104H5.22007L6.71607 14.6C6.96608 14.8502 7.10646 15.1894 7.10634 15.5431C7.10621 15.8968 6.96559 16.236 6.7154 16.486C6.46521 16.736 6.12596 16.8764 5.77226 16.8763C5.41857 16.8761 5.07941 16.7355 4.8294 16.4853L1.05873 12.7147C0.934286 12.5911 0.835516 12.4441 0.768116 12.2822C0.700715 12.1203 0.666016 11.9467 0.666016 11.7713C0.666016 11.596 0.700715 11.4223 0.768116 11.2604C0.835516 11.0985 0.934286 10.9516 1.05873 10.828L4.82807 7.05733C5.07808 6.80715 5.41723 6.66652 5.77093 6.6664C6.12462 6.66627 6.46388 6.80666 6.71407 7.05667C6.96425 7.30668 7.10488 7.64584 7.105 7.99953C7.10513 8.35322 6.96474 8.69248 6.71473 8.94267L5.22007 10.4373ZM18.0014 0C18.355 0 18.6942 0.140476 18.9442 0.390524C19.1943 0.640573 19.3347 0.979711 19.3347 1.33333V22.6667C19.3347 23.0203 19.1943 23.3594 18.9442 23.6095C18.6942 23.8595 18.355 24 18.0014 24C17.6478 24 17.3086 23.8595 17.0586 23.6095C16.8085 23.3594 16.6681 23.0203 16.6681 22.6667V1.33333C16.6681 0.979711 16.8085 0.640573 17.0586 0.390524C17.3086 0.140476 17.6478 0 18.0014 0Z" fill="white"/>
</svg>
