<svg width="308" height="309" viewBox="0 0 308 309" fill="none" xmlns="http://www.w3.org/2000/svg">
<path d="M289.908 89.9375C301.475 101.504 301.475 120.3 289.908 130.421L249.425 170.904L136.65 58.1292L177.133 17.6458C188.7 6.07917 207.496 6.07917 217.617 17.6458L243.642 43.6708L287.017 0.295837L307.258 20.5375L263.883 63.9125L289.908 89.9375ZM206.05 173.796L185.808 153.554L145.325 194.037L114.962 163.675L155.446 123.192L135.204 102.95L94.7208 143.433L73.0333 123.192L32.55 163.675C20.9833 175.242 20.9833 194.037 32.55 204.158L58.575 230.183L0.741638 288.017L20.9833 308.258L78.8166 250.425L104.842 276.45C116.408 288.017 135.204 288.017 145.325 276.45L185.808 235.967L165.567 215.725L206.05 173.796Z" fill="#010F1A"/>
</svg>
