<svg width="262" height="288" viewBox="0 0 262 288" fill="none" xmlns="http://www.w3.org/2000/svg">
<path fill-rule="evenodd" clip-rule="evenodd" d="M141.15 2.23605L242.358 40.1892C247.871 42.2557 252.622 45.956 255.976 50.7952C259.329 55.6344 261.126 61.382 261.125 67.2696V144.81C261.126 168.976 254.397 192.664 241.692 213.222C228.987 233.779 210.809 250.392 189.195 261.199L140.702 285.431C137.689 286.938 134.368 287.722 131 287.722C127.632 287.722 124.311 286.938 121.298 285.431L72.8052 261.185C51.1906 250.377 33.0125 233.764 20.308 213.207C7.60349 192.65 0.874484 168.961 0.875006 144.795V67.2841C0.871327 61.394 2.66647 55.6432 6.02026 50.8011C9.37406 45.959 14.1265 42.2566 19.6419 40.1892L120.85 2.23605C127.394 -0.21703 134.606 -0.21703 141.15 2.23605ZM131 172.917C127.165 172.917 123.488 174.44 120.776 177.151C118.065 179.863 116.542 183.54 116.542 187.375C116.542 191.21 118.065 194.887 120.776 197.599C123.488 200.31 127.165 201.833 131 201.833C134.835 201.833 138.512 200.31 141.224 197.599C143.935 194.887 145.458 191.21 145.458 187.375C145.458 183.54 143.935 179.863 141.224 177.151C138.512 174.44 134.835 172.917 131 172.917ZM131 71.7083C127.459 71.7088 124.041 73.009 121.394 75.3622C118.748 77.7154 117.057 80.958 116.643 84.4751L116.542 86.1667V144C116.546 147.685 117.957 151.23 120.487 153.909C123.016 156.589 126.474 158.201 130.153 158.417C133.831 158.633 137.454 157.437 140.28 155.071C143.106 152.706 144.922 149.351 145.357 145.692L145.458 144V86.1667C145.458 82.3321 143.935 78.6546 141.224 75.9431C138.512 73.2316 134.835 71.7083 131 71.7083Z" fill="#FF6969"/>
</svg>
