<svg width="262" height="288" viewBox="0 0 262 288" fill="none" xmlns="http://www.w3.org/2000/svg">
<path fill-rule="evenodd" clip-rule="evenodd" d="M120.85 2.23606C126.556 0.101321 132.79 -0.176981 138.663 1.44086L141.15 2.23606L242.358 40.1892C247.49 42.1135 251.969 45.4564 255.274 49.8286C258.578 54.2008 260.573 59.422 261.024 64.884L261.125 67.2696V144.81C261.124 168.238 254.799 191.232 242.815 211.364C230.832 231.496 213.635 248.019 193.041 259.19L189.195 261.199L140.702 285.446C138.031 286.779 135.115 287.547 132.135 287.701C129.154 287.855 126.174 287.393 123.38 286.342L121.298 285.446L72.8052 261.199C51.8494 250.721 34.1115 234.779 21.4637 215.057C8.81599 195.335 1.72776 172.564 0.947293 149.147L0.875 144.81V67.2696C0.875084 61.7918 2.4311 56.4267 5.36191 51.7988C8.29272 47.171 12.4777 43.4708 17.4298 41.129L19.6419 40.1892L120.85 2.23606ZM180.635 95.261L114.156 161.74L88.5937 136.178C85.8807 133.467 82.2019 131.945 78.3666 131.946C74.5312 131.947 70.8534 133.472 68.1424 136.185C65.4313 138.898 63.909 142.577 63.9104 146.412C63.9118 150.248 65.4367 153.926 68.1496 156.637L102.907 191.394C104.384 192.872 106.138 194.044 108.068 194.844C109.998 195.644 112.067 196.055 114.156 196.055C116.245 196.055 118.314 195.644 120.244 194.844C122.174 194.044 123.928 192.872 125.405 191.394L201.08 115.705C202.46 114.371 203.562 112.776 204.32 111.012C205.077 109.248 205.476 107.351 205.493 105.431C205.51 103.511 205.144 101.607 204.417 99.8305C203.69 98.0536 202.616 96.4393 201.259 95.0818C199.901 93.7242 198.287 92.6507 196.51 91.9237C194.733 91.1967 192.829 90.8309 190.91 90.8476C188.99 90.8643 187.093 91.2631 185.329 92.0208C183.565 92.7786 181.969 93.8801 180.635 95.261Z" fill="#47EA88"/>
</svg>
